<?xml version="1.0" encoding="UTF-8"?>
<!-- Created with Inkscape (http://www.inkscape.org/) -->
<svg id="svg1" width="107" height="62" version="1.1" viewBox="0 0 107 62" xmlns="http://www.w3.org/2000/svg">
		<g id="g1" transform="translate(-46 -46)">
				<path id="path1" d="m65 52s-0.38-5.8 5.5-5.8h62s5.7-0.61 5.7 6.1-0.16 43-0.16 43-0.65 5.5-6.6 5.5h-59s-6.7 0.33-6.7-5.8c0-6.1-0.3-43-0.3-43z" fill="#f9f9f9"/>
				<path id="path2" d="m84 108h35l-3.6-3.6h-7.6v-4.3h-12v4.9h-7.2z" fill="#f9f9f9"/>
				<path id="path3" d="m64 56s-20 20-0.86 28c20 7.5 55-7.5 55-7.5s15-6.6 18-9.9c2.7-3.3 8.5-8.2 8.5-8.2s-0.076 8.9-16 20-41 16-41 16-27 2.7-36-7.1c-9.3-9.8 0-21 0-21s9.2-10 13-11c3.7-0.91 0.11 1.6 0.11 1.6z" fill="#3f40ea"/>
				<path id="path4" d="m140 59 4-2.7 4.7 4.7-0.92-5.9 5.4-2.9-5.2-0.92-1.6-5.2-2.7 4.1-5.5-1.1 3.7 4.3z" fill="#3f40ea"/>
		</g>
</svg>
